<svg version="1.2" xmlns="http://www.w3.org/2000/svg" viewBox="0 0 190 86" width="190" height="86">
	<title>VIAJESUC (220 x 110 mm) (110 x 50 mm) (1)-svg</title>
	<style>
		.s0 { fill: #ffad30 } 
		.s1 { fill: #062247 } 
		.s2 { fill: #222020 } 
	</style>
	<g>
		<g>
			<g>
				<path class="s0" d="m20.8 66.1l-10.6-25.2h6.5l6.3 16.6 6.4-16.6h6.5l-10.6 25.2z"/>
			</g>
		</g>
	</g>
	<g>
		<g>
			<g>
				<path class="s0" d="m43.7 40.9v25.2h-5.7v-25.2z"/>
			</g>
		</g>
	</g>
	<g>
		<g>
			<g>
				<path fill-rule="evenodd" class="s0" d="m61.4 40.9l10.2 25.2h-6.2l-1.9-5h-9.6l-1.9 5h-6.2l10.2-25.2zm0.2 15.1l-2.8-7.3h-0.1l-2.8 7.3z"/>
			</g>
		</g>
	</g>
	<g>
		<g>
			<g>
				<path class="s0" d="m84.7 40.9v18.1q0 3.7-2.1 5.6-2 2-5.8 2-1 0-2-0.3-1-0.2-1.7-0.5-0.6-0.4-1.2-0.8-0.5-0.3-0.7-0.6l-0.3-0.2 1.8-4.8q1.8 1.7 3.3 1.7 1.3 0 2.1-0.9 0.8-0.9 0.8-2.7v-16.6z"/>
			</g>
		</g>
	</g>
	<g>
		<g>
			<g>
				<path class="s0" d="m103.6 40.9v5h-8.7v5h8.3v5.1h-8.3v5.1h8.7v5h-14.4v-25.2z"/>
			</g>
		</g>
	</g>
	<g>
		<g>
			<g>
				<path class="s0" d="m117.3 40.4q2.1 0 4 0.6 2 0.6 3 1.2l0.9 0.6-2.3 4.6q-0.3-0.2-0.8-0.5-0.5-0.3-1.9-0.8-1.3-0.5-2.5-0.5-1.4 0-2.2 0.7-0.8 0.6-0.8 1.6 0 0.5 0.4 1 0.4 0.4 1.3 0.9 0.8 0.5 1.5 0.8 0.7 0.3 2.1 1 2.5 1 4.2 2.8 1.7 1.8 1.7 4 0 2.2-0.8 3.8-0.7 1.7-2.1 2.6-1.4 0.9-3 1.3-1.7 0.5-3.6 0.5-1.7 0-3.2-0.4-1.6-0.3-2.7-0.8-1.1-0.5-1.9-1-0.9-0.5-1.3-0.8l-0.4-0.3 2.9-4.9q0.4 0.3 1 0.8 0.6 0.5 2.3 1.3 1.6 0.8 2.9 0.8 3.6 0 3.6-2.5 0-0.5-0.3-1-0.2-0.4-0.9-0.9-0.6-0.4-1.1-0.7-0.5-0.2-1.7-0.8-1.1-0.5-1.7-0.8-2.3-1.1-3.5-2.8-1.3-1.7-1.3-3.7 0-3.4 2.5-5.5 2.5-2.2 5.7-2.2z"/>
			</g>
		</g>
	</g>
	<g>
		<g>
			<g>
				<path class="s1" d="m149.2 40.9v16.3q0 4.6-2.6 7-2.5 2.4-7.3 2.4-4.9 0-7.4-2.4-2.5-2.4-2.5-7v-16.3h5.8v14.6q0 3 1 4.2 0.9 1.2 3.1 1.2 2.2 0 3.1-1.2 1-1.2 1-4.2v-14.6z"/>
			</g>
		</g>
	</g>
	<g>
		<g>
			<g>
				<path class="s1" d="m167.1 60.9q1.3 0 2.5-0.4 1.3-0.4 1.9-0.7l0.5-0.4 2.5 4.9q-0.1 0.1-0.4 0.2-0.2 0.2-1 0.6-0.7 0.4-1.6 0.7-0.9 0.3-2.3 0.5-1.5 0.3-3 0.3-3.5 0-6.7-1.7-3.1-1.8-5.1-4.8-1.9-3-1.9-6.6 0-2.6 1.1-5.1 1.2-2.4 3-4.1 1.9-1.8 4.4-2.8 2.6-1.1 5.2-1.1 2.4 0 4.5 0.6 2.1 0.6 2.9 1.2l0.9 0.5-2.5 4.9q-0.2-0.1-0.6-0.4-0.4-0.3-1.7-0.7-1.3-0.4-2.6-0.4-2.1 0-3.8 0.7-1.6 0.6-2.6 1.7-0.9 1.1-1.4 2.4-0.5 1.3-0.5 2.6 0 2.9 2.1 5.1 2.2 2.3 6.2 2.3z"/>
			</g>
		</g>
	</g>
	<g>
		<g>
			<g>
				<path fill-rule="evenodd" class="s2" d="m23.2 13.9h4.6q2 0 3.2 0.9 1.3 0.9 1.3 2.8 0 2.2-1.9 3.2 3.2 0.5 3.2 3.6 0 1.9-1.3 3-1.3 1.1-3.5 1.1h-5.6zm3.4 5.7h0.2q1.1 0 1.7-0.4 0.5-0.3 0.5-1.2 0-1.5-2.2-1.5h-0.2zm0 6.3h1q2.4 0 2.4-1.6 0-1-0.6-1.4-0.6-0.4-1.8-0.4h-1z"/>
			</g>
		</g>
	</g>
	<g>
		<g>
			<g>
				<path class="s2" d="m39 13.9v14.6h-3.3v-14.6z"/>
			</g>
		</g>
	</g>
	<g>
		<g>
			<g>
				<path class="s2" d="m50.1 13.9v2.9h-5v2.9h4.8v2.9h-4.8v3h5v2.9h-8.3v-14.6z"/>
			</g>
		</g>
	</g>
	<g>
		<g>
			<g>
				<path class="s2" d="m56 19.4v9.1h-3.3v-14.6h3.3l5.8 9.1h0.1v-9.1h3.3v14.6h-3.3l-5.9-9.1z"/>
			</g>
		</g>
	</g>
	<g>
		<g>
			<g>
				<path class="s2" d="m72.5 28.5l-6.1-14.6h3.7l3.7 9.6 3.7-9.6h3.8l-6.2 14.6z"/>
			</g>
		</g>
	</g>
	<g>
		<g>
			<g>
				<path class="s2" d="m90.8 13.9v2.9h-5v2.9h4.8v2.9h-4.8v3h5v2.9h-8.3v-14.6z"/>
			</g>
		</g>
	</g>
	<g>
		<g>
			<g>
				<path class="s2" d="m96.7 19.4v9.1h-3.3v-14.6h3.3l5.8 9.1h0.1v-9.1h3.3v14.6h-3.3l-5.9-9.1z"/>
			</g>
		</g>
	</g>
	<g>
		<g>
			<g>
				<path class="s2" d="m112 13.9v14.6h-3.3v-14.6z"/>
			</g>
		</g>
	</g>
	<g>
		<g>
			<g>
				<path fill-rule="evenodd" class="s2" d="m114.8 13.9h4.2q3 0 5.2 2.1 2.1 2.1 2.1 5.2 0 3.2-2.1 5.2-2.2 2.1-5.2 2.1h-4.2zm3.3 11.6h0.5q1.8 0.1 3-1.2 1.1-1.2 1.2-3.1 0-1.8-1.2-3.1-1.2-1.2-3-1.2h-0.5z"/>
			</g>
		</g>
	</g>
	<g>
		<g>
			<g>
				<path fill-rule="evenodd" class="s2" d="m140.1 22.4q0.6 0 0.8-0.4 0.3-0.4 0.3-1.3 0-2.1-1.5-3.4-1.6-1.3-3.9-1.3-2.3 0-3.9 1.5-1.5 1.5-1.5 3.7 0 2.1 1.6 3.6 1.5 1.5 3.8 1.5 1 0 1.8-0.3 0.9-0.3 1.2-0.6l0.3-0.3 2 1.3q0 0.1-0.2 0.3-0.1 0.1-0.5 0.5-0.5 0.4-1.1 0.7-0.6 0.4-1.5 0.6-1 0.3-2 0.3-2.2 0-4-1-1.8-0.9-2.9-2.7-1.1-1.7-1.1-3.9 0-2.2 1.1-3.9 1.1-1.8 2.9-2.7 1.8-1 4-1 3.1 0 5.3 2 2.2 2 2.2 5.1 0 1.9-1 2.9-1.1 1-2.6 1-1.5 0-2.4-0.9l-0.2 0.3q-0.9 0.9-2.2 0.9-1.5 0-2.4-1-1-1-1-2.5 0-1.5 1-2.6 0.9-1 2.4-1 1.3 0 2.2 0.8v-0.6h2.1v3.7q0 0.1 0 0.2 0.1 0.1 0.3 0.3 0.2 0.2 0.6 0.2zm-5.4-2.1q-0.4 0.4-0.4 1 0 0.7 0.4 1.1 0.4 0.4 1 0.4 0.6 0 1-0.4 0.4-0.5 0.4-1.1 0-0.6-0.4-1-0.4-0.4-1-0.4-0.6 0-1 0.4z"/>
			</g>
		</g>
	</g>
	<g>
		<g>
			<g>
			</g>
		</g>
	</g>
	<g>
		<g>
			<g>
				<path fill-rule="evenodd" class="s2" d="m158.3 13.9l5.9 14.6h-3.6l-1.1-2.9h-5.5l-1.1 2.9h-3.6l5.9-14.6zm0.1 8.8l-1.6-4.3-1.7 4.3z"/>
			</g>
		</g>
	</g>
</svg>