<svg version="1.2" xmlns="http://www.w3.org/2000/svg" viewBox="0 0 187 71" width="187" height="71">
	<title>VIAJESUC (220 x 110 mm) (110 x 50 mm)-svg</title>
	<style>
		.s0 { fill: #ffad30 } 
		.s1 { fill: #062247 } 
	</style>
	<g>
		<g>
			<g>
				<path class="s0" d="m22.8 53l-10.6-25.3h6.4l6.4 16.6 6.4-16.6h6.5l-10.6 25.3z"/>
			</g>
		</g>
	</g>
	<g>
		<g>
			<g>
				<path class="s0" d="m45.7 27.7v25.3h-5.7v-25.3z"/>
			</g>
		</g>
	</g>
	<g>
		<g>
			<g>
				<path fill-rule="evenodd" class="s0" d="m63.4 27.7l10.2 25.3h-6.2l-1.9-5.1h-9.6l-1.9 5.1h-6.2l10.2-25.3zm0.2 15.2l-2.8-7.4h-0.1l-2.8 7.4z"/>
			</g>
		</g>
	</g>
	<g>
		<g>
			<g>
				<path class="s0" d="m86.7 27.7v18.2q0 3.7-2.1 5.6-2 1.9-5.8 1.9-1 0-2-0.2-1-0.2-1.7-0.6-0.6-0.3-1.2-0.7-0.5-0.4-0.7-0.6l-0.3-0.3 1.8-4.8q1.8 1.7 3.3 1.7 1.3 0 2.1-0.8 0.8-0.9 0.8-2.7v-16.7z"/>
			</g>
		</g>
	</g>
	<g>
		<g>
			<g>
				<path class="s0" d="m105.6 27.7v5.1h-8.7v5h8.3v5.1h-8.3v5h8.7v5.1h-14.4v-25.3z"/>
			</g>
		</g>
	</g>
	<g>
		<g>
			<g>
				<path class="s0" d="m119.3 27.3q2.1 0 4 0.6 2 0.6 3 1.1l0.9 0.7-2.3 4.6q-0.3-0.2-0.8-0.5-0.5-0.3-1.9-0.8-1.3-0.5-2.5-0.5-1.4 0-2.2 0.6-0.8 0.6-0.8 1.7 0 0.5 0.4 1 0.4 0.4 1.3 0.9 0.8 0.5 1.5 0.8 0.7 0.3 2.1 0.9 2.4 1.1 4.2 2.9 1.7 1.7 1.7 4 0 2.2-0.8 3.8-0.7 1.6-2.1 2.5-1.4 1-3 1.4-1.7 0.4-3.6 0.4-1.7 0-3.2-0.3-1.6-0.3-2.7-0.8-1.1-0.5-1.9-1-0.9-0.5-1.3-0.9l-0.4-0.3 2.9-4.8q0.4 0.3 1 0.8 0.6 0.4 2.3 1.2 1.6 0.8 2.9 0.8 3.6 0 3.6-2.5 0-0.5-0.3-0.9-0.2-0.5-0.9-0.9-0.6-0.5-1.1-0.7-0.5-0.3-1.7-0.8-1.1-0.5-1.7-0.8-2.3-1.2-3.5-2.9-1.3-1.7-1.3-3.6 0-3.4 2.5-5.6 2.5-2.1 5.7-2.1z"/>
			</g>
		</g>
	</g>
	<g>
		<g>
			<g>
				<path class="s1" d="m151.1 27.7v16.3q0 4.7-2.5 7.1-2.5 2.3-7.3 2.3-4.9 0-7.4-2.3-2.5-2.4-2.5-7.1v-16.3h5.8v14.6q0 3.1 0.9 4.3 1 1.2 3.2 1.2 2.2 0 3.1-1.2 1-1.2 1-4.3v-14.6z"/>
			</g>
		</g>
	</g>
	<g>
		<g>
			<g>
				<path class="s1" d="m169.1 47.8q1.3 0 2.5-0.4 1.3-0.4 1.9-0.8l0.5-0.4 2.5 4.9q-0.1 0.1-0.4 0.3-0.2 0.1-1 0.5-0.7 0.4-1.6 0.8-0.9 0.3-2.3 0.5-1.5 0.2-3 0.2-3.5 0-6.7-1.7-3.1-1.7-5.1-4.7-1.9-3.1-1.9-6.6 0-2.7 1.1-5.1 1.2-2.5 3-4.2 1.9-1.7 4.4-2.8 2.5-1 5.2-1 2.4 0 4.5 0.6 2.1 0.5 2.9 1.1l0.9 0.6-2.5 4.9q-0.2-0.2-0.6-0.4-0.4-0.3-1.7-0.7-1.3-0.5-2.6-0.5-2.1 0-3.8 0.7-1.6 0.7-2.6 1.8-0.9 1.1-1.4 2.4-0.5 1.2-0.5 2.5 0 2.9 2.1 5.2 2.2 2.3 6.2 2.3z"/>
			</g>
		</g>
	</g>
</svg>